<!-- eslint-disable -->

<svg viewBox="0 0 1150 1425" fill="none" xmlns="http://www.w3.org/2000/svg"><path d="M918.3 909.095c62.276-48.293-12.823-210.146-14.747-285.284l-82.669-176.478-5.071 19.971" stroke="#5AB8C2" stroke-width="302.876"/><path d="M683.403 1134.01c174.776 69.33 169.419-608.579 166.229-545.916l-48.77-63.76-32.086-41.948M674.28 1141.08c1.128-12.46 24.765-55.02 110.288-125.62" stroke="#49AEC8" stroke-width="302.876"/><path d="M478.139 1321.32c115.525-71.08 308.256-270.29 154.985-498.492M672.906 324.173c-20.432 71.774-29.832 236.757 96.021 322.503" stroke="#123776" stroke-width="151.438"/><path d="M641.27 427.568c53.969 47.714 162.584 176.358 165.292 309.226" stroke="#123776" stroke-width="22.716"/><path d="M793.497 770.633c2.151 59.814-45.94 206.705-255.518 315.757" stroke="#0C3879" stroke-width="22.716"/><path d="M634.671 563.661c50.033 56.544 113.687 215.51-31.96 399.024" stroke="#123776" stroke-width="75.719"/><path d="M565.949 543.45c83.102 120.897 187.883 410.32-57.805 600.84" stroke="#2E6C52" stroke-width="75.719" stroke-linejoin="round"/><path d="M573.448 509.554c83.102 120.897 187.884 410.32-57.804 600.836" stroke="#2E6C52" stroke-opacity=".6" stroke-width="75.719" stroke-linejoin="round"/><path d="M397.628 1044.2c-15.904 66.7-2.302 165.41 179.34 26.66" stroke="#000306" stroke-width="75.719" stroke-linejoin="round"/><path d="M526.472 555.346c95.252 86.526 211.627 310.111-84.882 512.234" stroke="#2A634C" stroke-width="90.863"/><path d="M699.337 457.531c-3.339 23.205 15.635 98.836 107.173 231.858 21.2 27.485 39.819 53.241 53.78 73.565-20.232-26.228-38.074-50.741-53.78-73.565-63.047-81.738-148.923-178.776-203.021-193.762l95.848-38.096z" fill="#080753"/><path d="M655.312 884.481c-13.225 63.811-69.954 191.349-191.071 191.009" stroke="#001B49" stroke-width="75.719" stroke-linejoin="round"/><path d="M626.886 961.319c-43.468 49.771-83.319 195.161-97.812 261.631l54.135-41.98c-26.037-34.04 18.269-160.62 43.677-219.651z" fill="#080753"/><path d="M672.988 1017.79c-11.388 15.76-24.311 43.95-46.528 46.11-18.401 1.78-29.077 17.19-35.512 33.55-11.412 29.01-15.509 64.15-38.49 81.97" stroke="#080753" stroke-width="30.288" stroke-linecap="round"/><path d="m293.068 1229.12 376.559-186.49" stroke="#000" stroke-width="90.863" stroke-linejoin="round"/><path d="m413.87 1241.44 236.826-64.69" stroke="#34093F" stroke-width="105.72" stroke-linejoin="round"/><path d="M822.745 1004.57c6.683-17.755 19.984-44.125 14.845-62.818-1.571-5.714-6.29-11.412-9.73-15.993-5.986-7.97-11.68-16.511-19.804-22.512-9.068-6.699-19.1-11.606-27.357-19.404-12.609-11.908-22.559-26.431-33.057-40.155-5.849-7.648-14.053-15.705-17.388-25.054-4.1-11.499 2.613-24.58 9.627-34.494" stroke="#49AEC8" stroke-width="151.438"/><path d="M489.254 576.187c14.234-15.624 22.573-15.043 42.366-16.814 19.607-1.754 37.421 3.967 55.132 9.375 25.004 7.635 55.787 21.633 71.476 42.143" stroke="#000" stroke-width="75.719" stroke-linecap="round"/><path d="M547.448 644.665c47.231 61.747 150.737 225.554-61.221 431.075" stroke="#4EFF22" stroke-width="15.144"/><path d="M575.495 1125.71c187.227-159.286-.961-463.288-118.458-595.379 253.813 331.822 178.65 539.889 109.341 602.449-74.972 64.01-178.11 152.21 9.117-7.07z" fill="#2A7118"/><path d="M517.06 1129.34c-51.942-13.18-144.526 23.86-184.325 44.03 51.086-39.61 92.911-53.33 179.87-72.65 69.568-15.45 116.974-106.745 131.981-150.46-20.867 65.19-75.585 192.27-127.526 179.08z" fill="#0C3879"/><path d="M629.793 563.44c37.269 24.802 110.2 89.202 103.77 148.383" stroke="#1D494E" stroke-width="15.144"/><path d="M511.885 636.512c46.455 91.231 99.618 307.067-55.793 449.228 80.399-65.9 201.522-246.473 55.793-449.228z" fill="#62BC4B" fill-opacity=".5"/></svg>
