<svg width="636" height="656" viewBox="0 0 636 656" fill="none" xmlns="http://www.w3.org/2000/svg" xmlns:xlink="http://www.w3.org/1999/xlink">
<g filter="url(#filter0_dddif_910_796)">
<path fill-rule="evenodd" clip-rule="evenodd" d="M318 397C389.245 397 447 339.245 447 268C447 196.755 389.245 139 318 139C246.755 139 189 196.755 189 268C189 339.245 246.755 397 318 397ZM318 526C460.489 526 576 410.489 576 268C576 125.511 460.489 10 318 10C175.511 10 60 125.511 60 268C60 410.489 175.511 526 318 526Z" fill="url(#paint0_linear_910_796)"/>
<path fill-rule="evenodd" clip-rule="evenodd" d="M318 397C389.245 397 447 339.245 447 268C447 196.755 389.245 139 318 139C246.755 139 189 196.755 189 268C189 339.245 246.755 397 318 397ZM318 526C460.489 526 576 410.489 576 268C576 125.511 460.489 10 318 10C175.511 10 60 125.511 60 268C60 410.489 175.511 526 318 526Z" fill="url(#pattern0)" fill-opacity="0.4"/>
</g>
<defs>
<filter id="filter0_dddif_910_796" x="0" y="-10" width="636" height="666" filterUnits="userSpaceOnUse" color-interpolation-filters="sRGB">
<feFlood flood-opacity="0" result="BackgroundImageFix"/>
<feColorMatrix in="SourceAlpha" type="matrix" values="0 0 0 0 0 0 0 0 0 0 0 0 0 0 0 0 0 0 127 0" result="hardAlpha"/>
<feOffset dy="3"/>
<feComposite in2="hardAlpha" operator="out"/>
<feColorMatrix type="matrix" values="0 0 0 0 0.839216 0 0 0 0 0.854902 0 0 0 0 0.87451 0 0 0 1 0"/>
<feBlend mode="normal" in2="BackgroundImageFix" result="effect1_dropShadow_910_796"/>
<feColorMatrix in="SourceAlpha" type="matrix" values="0 0 0 0 0 0 0 0 0 0 0 0 0 0 0 0 0 0 127 0" result="hardAlpha"/>
<feOffset dx="-3" dy="-3"/>
<feComposite in2="hardAlpha" operator="out"/>
<feColorMatrix type="matrix" values="0 0 0 0 1 0 0 0 0 1 0 0 0 0 1 0 0 0 1 0"/>
<feBlend mode="normal" in2="effect1_dropShadow_910_796" result="effect2_dropShadow_910_796"/>
<feColorMatrix in="SourceAlpha" type="matrix" values="0 0 0 0 0 0 0 0 0 0 0 0 0 0 0 0 0 0 127 0" result="hardAlpha"/>
<feOffset dy="70"/>
<feGaussianBlur stdDeviation="30"/>
<feComposite in2="hardAlpha" operator="out"/>
<feColorMatrix type="matrix" values="0 0 0 0 0.662745 0 0 0 0 0.705882 0 0 0 0 0.796078 0 0 0 0.3 0"/>
<feBlend mode="normal" in2="effect2_dropShadow_910_796" result="effect3_dropShadow_910_796"/>
<feBlend mode="normal" in="SourceGraphic" in2="effect3_dropShadow_910_796" result="shape"/>
<feColorMatrix in="SourceAlpha" type="matrix" values="0 0 0 0 0 0 0 0 0 0 0 0 0 0 0 0 0 0 127 0" result="hardAlpha"/>
<feOffset dy="-20"/>
<feGaussianBlur stdDeviation="10"/>
<feComposite in2="hardAlpha" operator="arithmetic" k2="-1" k3="1"/>
<feColorMatrix type="matrix" values="0 0 0 0 1 0 0 0 0 1 0 0 0 0 1 0 0 0 0.2 0"/>
<feBlend mode="normal" in2="shape" result="effect4_innerShadow_910_796"/>
<feGaussianBlur stdDeviation="5" result="effect5_foregroundBlur_910_796"/>
</filter>
<pattern id="pattern0" patternContentUnits="objectBoundingBox" width="1" height="1">
</pattern>
<linearGradient id="paint0_linear_910_796" x1="79.092" y1="85.336" x2="547.62" y2="494.524" gradientUnits="userSpaceOnUse">
<stop stop-color="#F7F9FA"/>
<stop offset="1" stop-color="#E2E8EF"/>
</linearGradient>
</defs>
</svg>
