<svg width="482" height="513" viewBox="0 0 482 513" fill="none" xmlns="http://www.w3.org/2000/svg" xmlns:xlink="http://www.w3.org/1999/xlink">
<g filter="url(#filter0_dddif_910_799)">
<path d="M193.742 7.22897C194.495 6.48834 195.586 6.20075 196.614 6.47238L364.183 50.7612C365.228 51.0376 366.049 51.8506 366.331 52.8908L411.148 217.875C411.431 218.915 411.133 220.023 410.367 220.777L287.633 341.538C286.881 342.279 285.789 342.567 284.761 342.295L117.192 298.006C116.147 297.73 115.326 296.917 115.044 295.877L70.2266 130.892C69.944 129.852 70.2424 128.744 71.0082 127.991L193.742 7.22897Z" fill="url(#paint0_linear_910_799)"/>
<path d="M193.742 7.22897C194.495 6.48834 195.586 6.20075 196.614 6.47238L364.183 50.7612C365.228 51.0376 366.049 51.8506 366.331 52.8908L411.148 217.875C411.431 218.915 411.133 220.023 410.367 220.777L287.633 341.538C286.881 342.279 285.789 342.567 284.761 342.295L117.192 298.006C116.147 297.73 115.326 296.917 115.044 295.877L70.2266 130.892C69.944 129.852 70.2424 128.744 71.0082 127.991L193.742 7.22897Z" fill="url(#pattern0)" fill-opacity="0.4"/>
</g>
<defs>
<filter id="filter0_dddif_910_799" x="0.121094" y="-13.6282" width="481.133" height="526.024" filterUnits="userSpaceOnUse" color-interpolation-filters="sRGB">
<feFlood flood-opacity="0" result="BackgroundImageFix"/>
<feColorMatrix in="SourceAlpha" type="matrix" values="0 0 0 0 0 0 0 0 0 0 0 0 0 0 0 0 0 0 127 0" result="hardAlpha"/>
<feOffset dy="3"/>
<feComposite in2="hardAlpha" operator="out"/>
<feColorMatrix type="matrix" values="0 0 0 0 0.839216 0 0 0 0 0.854902 0 0 0 0 0.87451 0 0 0 1 0"/>
<feBlend mode="normal" in2="BackgroundImageFix" result="effect1_dropShadow_910_799"/>
<feColorMatrix in="SourceAlpha" type="matrix" values="0 0 0 0 0 0 0 0 0 0 0 0 0 0 0 0 0 0 127 0" result="hardAlpha"/>
<feOffset dx="-3" dy="-3"/>
<feComposite in2="hardAlpha" operator="out"/>
<feColorMatrix type="matrix" values="0 0 0 0 1 0 0 0 0 1 0 0 0 0 1 0 0 0 1 0"/>
<feBlend mode="normal" in2="effect1_dropShadow_910_799" result="effect2_dropShadow_910_799"/>
<feColorMatrix in="SourceAlpha" type="matrix" values="0 0 0 0 0 0 0 0 0 0 0 0 0 0 0 0 0 0 127 0" result="hardAlpha"/>
<feOffset dy="100"/>
<feGaussianBlur stdDeviation="35"/>
<feComposite in2="hardAlpha" operator="out"/>
<feColorMatrix type="matrix" values="0 0 0 0 0.662745 0 0 0 0 0.705882 0 0 0 0 0.796078 0 0 0 0.3 0"/>
<feBlend mode="normal" in2="effect2_dropShadow_910_799" result="effect3_dropShadow_910_799"/>
<feBlend mode="normal" in="SourceGraphic" in2="effect3_dropShadow_910_799" result="shape"/>
<feColorMatrix in="SourceAlpha" type="matrix" values="0 0 0 0 0 0 0 0 0 0 0 0 0 0 0 0 0 0 127 0" result="hardAlpha"/>
<feOffset dy="-20"/>
<feGaussianBlur stdDeviation="10"/>
<feComposite in2="hardAlpha" operator="arithmetic" k2="-1" k3="1"/>
<feColorMatrix type="matrix" values="0 0 0 0 1 0 0 0 0 1 0 0 0 0 1 0 0 0 0.2 0"/>
<feBlend mode="normal" in2="shape" result="effect4_innerShadow_910_799"/>
<feGaussianBlur stdDeviation="3" result="effect5_foregroundBlur_910_799"/>
</filter>
<pattern id="pattern0" patternContentUnits="objectBoundingBox" width="1" height="1">
</pattern>
<linearGradient id="paint0_linear_910_799" x1="50.0043" y1="96.8939" x2="430.682" y2="286.743" gradientUnits="userSpaceOnUse">
<stop stop-color="#F7F9FA"/>
<stop offset="1" stop-color="#E2E8EF"/>
</linearGradient>
</defs>
</svg>
