<svg width="257" height="258" viewBox="0 0 257 258" fill="none" xmlns="http://www.w3.org/2000/svg" xmlns:xlink="http://www.w3.org/1999/xlink">
<g filter="url(#filter0_dddif_74_2772)">
<path d="M111.261 11.8695C112.019 11.1119 113.124 10.8164 114.159 11.0942L169.287 25.8901C170.322 26.168 171.13 26.9769 171.407 28.0123L186.157 83.1522C186.434 84.1876 186.138 85.2921 185.38 86.0496L145.002 126.394C144.244 127.151 143.139 127.447 142.104 127.169L86.9765 112.373C85.9413 112.095 85.133 111.286 84.856 110.251L70.1059 55.1108C69.8289 54.0754 70.1254 52.9709 70.8836 52.2133L111.261 11.8695Z" fill="url(#paint0_linear_74_2772)"/>
<path d="M111.261 11.8695C112.019 11.1119 113.124 10.8164 114.159 11.0942L169.287 25.8901C170.322 26.168 171.13 26.9769 171.407 28.0123L186.157 83.1522C186.434 84.1876 186.138 85.2921 185.38 86.0496L145.002 126.394C144.244 127.151 143.139 127.447 142.104 127.169L86.9765 112.373C85.9413 112.095 85.133 111.286 84.856 110.251L70.1059 55.1108C69.8289 54.0754 70.1254 52.9709 70.8836 52.2133L111.261 11.8695Z" fill="url(#pattern0)" fill-opacity="0.4"/>
</g>
<defs>
<filter id="filter0_dddif_74_2772" x="0.00390625" y="-9.00842" width="256.255" height="266.28" filterUnits="userSpaceOnUse" color-interpolation-filters="sRGB">
<feFlood flood-opacity="0" result="BackgroundImageFix"/>
<feColorMatrix in="SourceAlpha" type="matrix" values="0 0 0 0 0 0 0 0 0 0 0 0 0 0 0 0 0 0 127 0" result="hardAlpha"/>
<feOffset dy="3"/>
<feComposite in2="hardAlpha" operator="out"/>
<feColorMatrix type="matrix" values="0 0 0 0 0.839216 0 0 0 0 0.854902 0 0 0 0 0.87451 0 0 0 1 0"/>
<feBlend mode="normal" in2="BackgroundImageFix" result="effect1_dropShadow_74_2772"/>
<feColorMatrix in="SourceAlpha" type="matrix" values="0 0 0 0 0 0 0 0 0 0 0 0 0 0 0 0 0 0 127 0" result="hardAlpha"/>
<feOffset dx="-3" dy="-3"/>
<feComposite in2="hardAlpha" operator="out"/>
<feColorMatrix type="matrix" values="0 0 0 0 1 0 0 0 0 1 0 0 0 0 1 0 0 0 1 0"/>
<feBlend mode="normal" in2="effect1_dropShadow_74_2772" result="effect2_dropShadow_74_2772"/>
<feColorMatrix in="SourceAlpha" type="matrix" values="0 0 0 0 0 0 0 0 0 0 0 0 0 0 0 0 0 0 127 0" result="hardAlpha"/>
<feOffset dy="60"/>
<feGaussianBlur stdDeviation="35"/>
<feComposite in2="hardAlpha" operator="out"/>
<feColorMatrix type="matrix" values="0 0 0 0 0.662745 0 0 0 0 0.705882 0 0 0 0 0.796078 0 0 0 0.3 0"/>
<feBlend mode="normal" in2="effect2_dropShadow_74_2772" result="effect3_dropShadow_74_2772"/>
<feBlend mode="normal" in="SourceGraphic" in2="effect3_dropShadow_74_2772" result="shape"/>
<feColorMatrix in="SourceAlpha" type="matrix" values="0 0 0 0 0 0 0 0 0 0 0 0 0 0 0 0 0 0 127 0" result="hardAlpha"/>
<feOffset dy="-20"/>
<feGaussianBlur stdDeviation="10"/>
<feComposite in2="hardAlpha" operator="arithmetic" k2="-1" k3="1"/>
<feColorMatrix type="matrix" values="0 0 0 0 1 0 0 0 0 1 0 0 0 0 1 0 0 0 0.2 0"/>
<feBlend mode="normal" in2="shape" result="effect4_innerShadow_74_2772"/>
<feGaussianBlur stdDeviation="0.5" result="effect5_foregroundBlur_74_2772"/>
</filter>
<pattern id="pattern0" patternContentUnits="objectBoundingBox" width="1" height="1">
</pattern>
<linearGradient id="paint0_linear_74_2772" x1="62.8964" y1="42.2108" x2="193.921" y2="106.558" gradientUnits="userSpaceOnUse">
<stop stop-color="#F7F9FA"/>
<stop offset="1" stop-color="#E2E8EF"/>
</linearGradient>
</defs>
</svg>
