<svg width="257" height="258" viewBox="0 0 257 258" fill="none" xmlns="http://www.w3.org/2000/svg" xmlns:xlink="http://www.w3.org/1999/xlink">
<g filter="url(#filter0_dddif_74_2773)">
<path d="M111.261 41.8695C112.019 41.1119 113.124 40.8164 114.159 41.0942L169.287 55.8901C170.322 56.168 171.13 56.9769 171.407 58.0123L186.157 113.152C186.434 114.188 186.138 115.292 185.38 116.05L145.002 156.394C144.244 157.151 143.139 157.447 142.104 157.169L86.9765 142.373C85.9413 142.095 85.133 141.286 84.856 140.251L70.1059 85.1108C69.8289 84.0754 70.1254 82.9709 70.8836 82.2133L111.261 41.8695Z" fill="url(#paint0_linear_74_2773)"/>
<path d="M111.261 41.8695C112.019 41.1119 113.124 40.8164 114.159 41.0942L169.287 55.8901C170.322 56.168 171.13 56.9769 171.407 58.0123L186.157 113.152C186.434 114.188 186.138 115.292 185.38 116.05L145.002 156.394C144.244 157.151 143.139 157.447 142.104 157.169L86.9765 142.373C85.9413 142.095 85.133 141.286 84.856 140.251L70.1059 85.1108C69.8289 84.0754 70.1254 82.9709 70.8836 82.2133L111.261 41.8695Z" fill="url(#pattern0)" fill-opacity="0.4"/>
</g>
<defs>
<filter id="filter0_dddif_74_2773" x="0.00395203" y="0.991577" width="256.255" height="256.28" filterUnits="userSpaceOnUse" color-interpolation-filters="sRGB">
<feFlood flood-opacity="0" result="BackgroundImageFix"/>
<feColorMatrix in="SourceAlpha" type="matrix" values="0 0 0 0 0 0 0 0 0 0 0 0 0 0 0 0 0 0 127 0" result="hardAlpha"/>
<feOffset dy="3"/>
<feComposite in2="hardAlpha" operator="out"/>
<feColorMatrix type="matrix" values="0 0 0 0 0.839216 0 0 0 0 0.854902 0 0 0 0 0.87451 0 0 0 1 0"/>
<feBlend mode="normal" in2="BackgroundImageFix" result="effect1_dropShadow_74_2773"/>
<feColorMatrix in="SourceAlpha" type="matrix" values="0 0 0 0 0 0 0 0 0 0 0 0 0 0 0 0 0 0 127 0" result="hardAlpha"/>
<feOffset dx="-3" dy="-3"/>
<feComposite in2="hardAlpha" operator="out"/>
<feColorMatrix type="matrix" values="0 0 0 0 1 0 0 0 0 1 0 0 0 0 1 0 0 0 1 0"/>
<feBlend mode="normal" in2="effect1_dropShadow_74_2773" result="effect2_dropShadow_74_2773"/>
<feColorMatrix in="SourceAlpha" type="matrix" values="0 0 0 0 0 0 0 0 0 0 0 0 0 0 0 0 0 0 127 0" result="hardAlpha"/>
<feOffset dy="30"/>
<feGaussianBlur stdDeviation="35"/>
<feComposite in2="hardAlpha" operator="out"/>
<feColorMatrix type="matrix" values="0 0 0 0 0.662745 0 0 0 0 0.705882 0 0 0 0 0.796078 0 0 0 0.3 0"/>
<feBlend mode="normal" in2="effect2_dropShadow_74_2773" result="effect3_dropShadow_74_2773"/>
<feBlend mode="normal" in="SourceGraphic" in2="effect3_dropShadow_74_2773" result="shape"/>
<feColorMatrix in="SourceAlpha" type="matrix" values="0 0 0 0 0 0 0 0 0 0 0 0 0 0 0 0 0 0 127 0" result="hardAlpha"/>
<feOffset dy="-20"/>
<feGaussianBlur stdDeviation="10"/>
<feComposite in2="hardAlpha" operator="arithmetic" k2="-1" k3="1"/>
<feColorMatrix type="matrix" values="0 0 0 0 1 0 0 0 0 1 0 0 0 0 1 0 0 0 0.2 0"/>
<feBlend mode="normal" in2="shape" result="effect4_innerShadow_74_2773"/>
<feGaussianBlur stdDeviation="0.5" result="effect5_foregroundBlur_74_2773"/>
</filter>
<pattern id="pattern0" patternContentUnits="objectBoundingBox" width="1" height="1">
</pattern>
<linearGradient id="paint0_linear_74_2773" x1="62.8964" y1="72.2108" x2="193.921" y2="136.558" gradientUnits="userSpaceOnUse">
<stop stop-color="#F7F9FA"/>
<stop offset="1" stop-color="#E2E8EF"/>
</linearGradient>
</defs>
</svg>
