<svg width="257" height="291" viewBox="0 0 257 291" fill="none" xmlns="http://www.w3.org/2000/svg" xmlns:xlink="http://www.w3.org/1999/xlink">
<g filter="url(#filter0_dddif_74_2649)">
<path d="M111.261 4.86958C112.019 4.11202 113.124 3.81649 114.159 4.09433L169.287 18.8903C170.322 19.1681 171.13 19.9771 171.407 21.0125L186.157 76.1523C186.434 77.1877 186.138 78.2922 185.38 79.0497L145.002 119.394C144.244 120.151 143.139 120.447 142.104 120.169L86.9765 105.373C85.9413 105.095 85.133 104.286 84.856 103.251L70.1059 48.1109C69.8289 47.0755 70.1254 45.971 70.8836 45.2135L111.261 4.86958Z" fill="url(#paint0_linear_74_2649)"/>
<path d="M111.261 4.86958C112.019 4.11202 113.124 3.81649 114.159 4.09433L169.287 18.8903C170.322 19.1681 171.13 19.9771 171.407 21.0125L186.157 76.1523C186.434 77.1877 186.138 78.2922 185.38 79.0497L145.002 119.394C144.244 120.151 143.139 120.447 142.104 120.169L86.9765 105.373C85.9413 105.095 85.133 104.286 84.856 103.251L70.1059 48.1109C69.8289 47.0755 70.1254 45.971 70.8836 45.2135L111.261 4.86958Z" fill="url(#pattern0)" fill-opacity="0.4"/>
</g>
<defs>
<filter id="filter0_dddif_74_2649" x="0.00395203" y="-16.0083" width="256.255" height="306.28" filterUnits="userSpaceOnUse" color-interpolation-filters="sRGB">
<feFlood flood-opacity="0" result="BackgroundImageFix"/>
<feColorMatrix in="SourceAlpha" type="matrix" values="0 0 0 0 0 0 0 0 0 0 0 0 0 0 0 0 0 0 127 0" result="hardAlpha"/>
<feOffset dy="3"/>
<feComposite in2="hardAlpha" operator="out"/>
<feColorMatrix type="matrix" values="0 0 0 0 0.839216 0 0 0 0 0.854902 0 0 0 0 0.87451 0 0 0 1 0"/>
<feBlend mode="normal" in2="BackgroundImageFix" result="effect1_dropShadow_74_2649"/>
<feColorMatrix in="SourceAlpha" type="matrix" values="0 0 0 0 0 0 0 0 0 0 0 0 0 0 0 0 0 0 127 0" result="hardAlpha"/>
<feOffset dx="-3" dy="-3"/>
<feComposite in2="hardAlpha" operator="out"/>
<feColorMatrix type="matrix" values="0 0 0 0 1 0 0 0 0 1 0 0 0 0 1 0 0 0 1 0"/>
<feBlend mode="normal" in2="effect1_dropShadow_74_2649" result="effect2_dropShadow_74_2649"/>
<feColorMatrix in="SourceAlpha" type="matrix" values="0 0 0 0 0 0 0 0 0 0 0 0 0 0 0 0 0 0 127 0" result="hardAlpha"/>
<feOffset dy="100"/>
<feGaussianBlur stdDeviation="35"/>
<feComposite in2="hardAlpha" operator="out"/>
<feColorMatrix type="matrix" values="0 0 0 0 0.662745 0 0 0 0 0.705882 0 0 0 0 0.796078 0 0 0 0.3 0"/>
<feBlend mode="normal" in2="effect2_dropShadow_74_2649" result="effect3_dropShadow_74_2649"/>
<feBlend mode="normal" in="SourceGraphic" in2="effect3_dropShadow_74_2649" result="shape"/>
<feColorMatrix in="SourceAlpha" type="matrix" values="0 0 0 0 0 0 0 0 0 0 0 0 0 0 0 0 0 0 127 0" result="hardAlpha"/>
<feOffset dy="-20"/>
<feGaussianBlur stdDeviation="10"/>
<feComposite in2="hardAlpha" operator="arithmetic" k2="-1" k3="1"/>
<feColorMatrix type="matrix" values="0 0 0 0 1 0 0 0 0 1 0 0 0 0 1 0 0 0 0.2 0"/>
<feBlend mode="normal" in2="shape" result="effect4_innerShadow_74_2649"/>
<feGaussianBlur stdDeviation="0.5" result="effect5_foregroundBlur_74_2649"/>
</filter>
<pattern id="pattern0" patternContentUnits="objectBoundingBox" width="1" height="1">
</pattern>
<linearGradient id="paint0_linear_74_2649" x1="62.8964" y1="35.2109" x2="193.921" y2="99.5582" gradientUnits="userSpaceOnUse">
<stop stop-color="#F7F9FA"/>
<stop offset="1" stop-color="#E2E8EF"/>
</linearGradient>
</defs>
</svg>
